<?xml version="1.0" standalone="no"?>
<!DOCTYPE svg PUBLIC "-//W3C//DTD SVG 20010904//EN"
 "http://www.w3.org/TR/2001/REC-SVG-20010904/DTD/svg10.dtd">
<svg version="1.0" xmlns="http://www.w3.org/2000/svg"
 width="333.000000pt" height="333.000000pt" viewBox="0 0 333.000000 333.000000"
 preserveAspectRatio="xMidYMid meet">
<metadata>
Created by potrace 1.14, written by Peter Selinger 2001-2017
</metadata>
<g transform="translate(0.000000,333.000000) scale(0.100000,-0.100000)"
fill="#000000" stroke="none">
<path d="M853 3318 c3 -7 17 -44 32 -83 15 -38 33 -83 40 -100 7 -16 25 -61
40 -100 15 -38 33 -85 41 -103 23 -54 19 -62 -31 -62 -40 0 -45 -2 -45 -23 0
-13 6 -29 13 -36 10 -11 8 -15 -8 -25 -39 -22 -207 -192 -257 -259 -92 -124
-194 -362 -220 -514 -31 -187 -19 -397 33 -571 38 -127 128 -309 199 -402 37
-49 253 -270 263 -270 5 0 27 -15 50 -34 23 -18 56 -41 74 -50 17 -9 34 -20
37 -25 13 -20 -127 -54 -244 -58 -206 -8 -366 42 -478 150 -30 29 -66 77 -82
108 -52 102 -73 276 -51 429 6 37 5 57 -3 62 -7 5 3 21 27 46 20 21 37 43 37
50 0 14 -56 16 -65 2 -14 -22 -25 -8 -25 33 0 24 -5 48 -11 54 -14 14 -69 6
-84 -11 -5 -6 -19 -11 -30 -11 -29 0 -30 -34 -4 -94 20 -48 21 -55 8 -114 -9
-39 -14 -117 -13 -212 1 -129 5 -158 24 -205 12 -30 28 -74 37 -98 9 -26 43
-72 88 -120 86 -92 174 -140 325 -179 84 -22 110 -24 225 -20 72 3 144 10 162
17 61 22 66 12 30 -60 -40 -79 -113 -264 -132 -334 -8 -28 -17 -61 -21 -73
l-6 -23 209 0 209 0 13 61 c19 93 124 369 140 369 3 0 24 -37 46 -83 31 -64
60 -103 130 -176 49 -51 117 -111 150 -133 l60 -39 341 3 341 3 44 30 c129 88
223 169 302 262 75 86 121 159 112 174 -4 6 8 27 27 47 79 84 98 129 58 139
-13 4 -20 14 -20 30 0 22 -4 25 -26 20 -16 -3 -28 0 -31 9 -10 27 -31 14 -50
-31 -17 -43 -37 -58 -45 -33 -3 7 -14 9 -32 4 -24 -6 -28 -11 -23 -34 3 -15 8
-34 11 -42 4 -10 -2 -19 -16 -25 -12 -6 -39 -34 -59 -64 -79 -115 -256 -274
-364 -329 -238 -119 -472 -87 -662 92 -73 69 -173 199 -173 225 0 15 24 14
116 -5 64 -13 117 -16 279 -11 110 3 218 11 240 17 22 6 58 16 80 22 197 50
390 149 503 257 29 28 59 51 67 51 18 0 155 160 201 233 18 29 44 71 59 95 34
54 75 164 126 337 11 38 24 237 22 330 -4 130 -58 319 -139 480 -63 125 -87
158 -221 303 -93 101 -138 138 -212 175 -20 11 -49 32 -66 47 -35 33 -223 125
-299 146 -154 44 -196 53 -291 65 -84 10 -133 10 -247 1 -79 -7 -158 -15 -175
-18 -30 -6 -33 -4 -33 20 0 35 -31 35 -82 0 -21 -15 -39 -25 -41 -23 -4 7 -57
161 -85 246 l-27 83 -224 0 c-174 0 -222 -3 -218 -12z"/>
</g>
</svg>
